<svg width="27" height="28" viewBox="0 0 27 28" fill="none" xmlns="http://www.w3.org/2000/svg">
<path d="M19.8493 19.5533L7.56071 19.5533C6.94677 19.5533 6.44907 19.0556 6.44907 18.4416C6.44907 17.8277 6.94677 17.33 7.56071 17.33L19.8493 17.33L17.2178 14.6985C16.8044 14.2851 16.8044 13.6148 17.2178 13.2013C17.6313 12.7879 18.3016 12.7879 18.7151 13.2013L23.2068 17.693C23.6202 18.1065 23.6202 18.7768 23.2068 19.1902L18.7151 23.6819C18.3016 24.0954 17.6313 24.0954 17.2178 23.6819C16.8044 23.2685 16.8044 22.5981 17.2178 22.1847L19.8493 19.5533ZM7.10025 8.3466L19.3888 8.3466C20.0028 8.3466 20.5005 8.8443 20.5005 9.45824C20.5005 10.0722 20.0028 10.5699 19.3888 10.5699L7.10025 10.5699L9.73169 13.2013C10.1451 13.6148 10.1451 14.2851 9.73169 14.6985C9.31824 15.112 8.64791 15.112 8.23446 14.6985L3.74277 10.2069C3.32932 9.7934 3.32932 9.12307 3.74277 8.70962L8.23446 4.21793C8.64791 3.80448 9.31824 3.80448 9.73169 4.21793C10.1451 4.63138 10.1451 5.30171 9.73169 5.71516L7.10025 8.3466Z" fill="#8247E5"/>
</svg>
