<svg width="1440" height="2032" viewBox="0 0 1440 2032" fill="none" xmlns="http://www.w3.org/2000/svg">
<path d="M-3.73761 869.449L-130.338 650.17L122.863 650.17L-3.73761 869.449Z" stroke="url(#paint0_angular)" stroke-width="8"/>
<path d="M-3.73742 924.946L-178.4 622.421L170.925 622.421L-3.73742 924.946Z" stroke="url(#paint1_angular)" stroke-width="13"/>
<path d="M-3.73731 806.925L-76.1905 681.432L68.716 681.432L-3.73731 806.925Z" stroke="url(#paint2_angular)" stroke-width="13"/>
<path d="M-3.7375 759.827L-35.4034 704.981L27.9284 704.981L-3.7375 759.827Z" stroke="url(#paint3_angular)" stroke-width="6"/>
<path d="M170 1020.98L221.962 1020.98L195.981 975.981L170 1020.98Z" fill="url(#paint4_angular)"/>
<path d="M45 198.981L96.9615 198.981L70.9808 243.981L45 198.981Z" fill="url(#paint5_angular)"/>
<path d="M143 273.981L194.962 273.981L168.981 318.981L143 273.981Z" fill="url(#paint6_angular)"/>
<path d="M625 661.981L676.962 661.981L650.981 616.981L625 661.981Z" fill="url(#paint7_angular)"/>
<path d="M1187.5 874.203L1259.57 749.373L1115.43 749.373L1187.5 874.203Z" stroke="url(#paint8_angular)" stroke-width="8"/>
<path d="M1187.5 913.994L1294.03 729.478L1080.97 729.478L1187.5 913.994Z" stroke="url(#paint9_angular)" stroke-width="4"/>
<path d="M1187.5 835.17L1225.77 768.89L1149.23 768.89L1187.5 835.17Z" stroke="url(#paint10_angular)" stroke-width="13"/>
<path d="M1084.71 967.119L1053.97 967.119L1069.34 940.496L1084.71 967.119Z" fill="url(#paint11_angular)"/>
<path d="M77.4994 1024.28L149.57 1149.11L5.42926 1149.11L77.4994 1024.28Z" stroke="url(#paint12_angular)" stroke-width="8"/>
<path d="M77.4995 984.489L184.03 1169.01L-29.031 1169.01L77.4995 984.489Z" stroke="url(#paint13_angular)" stroke-width="4"/>
<path d="M77.4992 1063.31L115.766 1129.59L39.2321 1129.59L77.4992 1063.31Z" stroke="url(#paint14_angular)" stroke-width="13"/>
<path d="M1285.92 446.58L1164.94 237.04L1043.96 446.58L1285.92 446.58Z" stroke="url(#paint15_angular)" stroke-width="5"/>
<path d="M1335.09 474.967L1164.94 180.267L994.797 474.967L1335.09 474.967Z" stroke="url(#paint16_angular)" stroke-width="5"/>
<path d="M1240.9 420.589L1164.94 289.023L1088.98 420.589L1240.9 420.589Z" stroke="url(#paint17_angular)" stroke-width="3"/>
<path d="M1184.81 388.206L1164.94 353.789L1145.07 388.206L1184.81 388.206Z" stroke="url(#paint18_angular)" stroke-width="17"/>
<path d="M1325.38 657.627L1301 699.856L1276.62 657.627L1325.38 657.627Z" fill="url(#paint19_angular)"/>
<path d="M1082.99 1751.35L1269.16 1428.9L1455.32 1751.35L1082.99 1751.35Z" stroke="url(#paint20_angular)" stroke-width="5"/>
<path d="M1008.25 1794.5L1269.16 1342.6L1530.07 1794.5L1008.25 1794.5Z" stroke="url(#paint21_angular)" stroke-width="5"/>
<path d="M1152.33 1711.31L1269.16 1508.97L1385.98 1711.31L1152.33 1711.31Z" stroke="url(#paint22_angular)" stroke-width="3"/>
<path d="M1231.29 1665.73L1269.16 1600.14L1307.02 1665.73L1231.29 1665.73Z" stroke="url(#paint23_angular)" stroke-width="17"/>
<path d="M962.078 1600.43L872.576 1445.41L1051.58 1445.41L962.078 1600.43Z" stroke="url(#paint24_angular)" stroke-width="5"/>
<path d="M962.078 1642.94L835.76 1424.15L1088.4 1424.15L962.078 1642.94Z" stroke="url(#paint25_angular)" stroke-width="5"/>
<path d="M962.078 1562L905.851 1464.62L1018.31 1464.62L962.078 1562Z" stroke="url(#paint26_angular)" stroke-width="3"/>
<path d="M962.078 1509.99L950.897 1490.62L973.259 1490.62L962.078 1509.99Z" stroke="url(#paint27_angular)" stroke-width="17"/>
<path d="M1386.54 1167.89L1492.32 1167.89L1439.43 1259.51L1386.54 1167.89Z" fill="url(#paint28_angular)"/>
<path d="M111.032 1404.57L170.035 1404.57L140.534 1353.47L111.032 1404.57Z" fill="url(#paint29_angular)"/>
<path d="M1306 176.981L1357.96 176.981L1331.98 221.981L1306 176.981Z" fill="url(#paint30_angular)"/>
<defs>
<radialGradient id="paint0_angular" cx="0" cy="0" r="1" gradientUnits="userSpaceOnUse" gradientTransform="translate(-3.63872 723.362) rotate(90) scale(328.93)">
<stop stop-color="#8247E5"/>
<stop offset="1" stop-color="#8247E5" stop-opacity="0"/>
</radialGradient>
<radialGradient id="paint1_angular" cx="0" cy="0" r="1" gradientUnits="userSpaceOnUse" gradientTransform="translate(-3.59974 723.401) rotate(90) scale(457.991)">
<stop stop-color="#8247E5"/>
<stop offset="1" stop-color="#8247E5" stop-opacity="0"/>
</radialGradient>
<radialGradient id="paint2_angular" cx="0" cy="0" r="1" gradientUnits="userSpaceOnUse" gradientTransform="translate(-3.67531 723.325) rotate(90) scale(206.212)">
<stop stop-color="#8247E5"/>
<stop offset="1" stop-color="#8247E5" stop-opacity="0"/>
</radialGradient>
<radialGradient id="paint3_angular" cx="0" cy="0" r="1" gradientUnits="userSpaceOnUse" gradientTransform="translate(-3.71021 723.29) rotate(90) scale(90.8045)">
<stop stop-color="#8247E5"/>
<stop offset="1" stop-color="#8247E5" stop-opacity="0"/>
</radialGradient>
<radialGradient id="paint4_angular" cx="0" cy="0" r="1" gradientUnits="userSpaceOnUse" gradientTransform="translate(196 1005.96) rotate(-90) scale(64)">
<stop stop-color="#8247E5"/>
<stop offset="1" stop-color="#8247E5" stop-opacity="0"/>
</radialGradient>
<radialGradient id="paint5_angular" cx="0" cy="0" r="1" gradientUnits="userSpaceOnUse" gradientTransform="translate(71 214) rotate(90) scale(64)">
<stop stop-color="#8247E5"/>
<stop offset="1" stop-color="#8247E5" stop-opacity="0"/>
</radialGradient>
<radialGradient id="paint6_angular" cx="0" cy="0" r="1" gradientUnits="userSpaceOnUse" gradientTransform="translate(169 289) rotate(90) scale(64)">
<stop stop-color="#8247E5"/>
<stop offset="1" stop-color="#8247E5" stop-opacity="0"/>
</radialGradient>
<radialGradient id="paint7_angular" cx="0" cy="0" r="1" gradientUnits="userSpaceOnUse" gradientTransform="translate(651 646.962) rotate(-90) scale(64)">
<stop stop-color="#8247E5"/>
<stop offset="1" stop-color="#8247E5" stop-opacity="0"/>
</radialGradient>
<radialGradient id="paint8_angular" cx="0" cy="0" r="1" gradientUnits="userSpaceOnUse" gradientTransform="translate(1187.44 791.042) rotate(90) scale(194.601)">
<stop stop-color="#8247E5"/>
<stop offset="1" stop-color="#8247E5" stop-opacity="0"/>
</radialGradient>
<radialGradient id="paint9_angular" cx="0" cy="0" r="1" gradientUnits="userSpaceOnUse" gradientTransform="translate(1187.42 791.065) rotate(90) scale(270.956)">
<stop stop-color="#8247E5"/>
<stop offset="1" stop-color="#8247E5" stop-opacity="0"/>
</radialGradient>
<radialGradient id="paint10_angular" cx="0" cy="0" r="1" gradientUnits="userSpaceOnUse" gradientTransform="translate(1187.46 791.02) rotate(90) scale(121.999)">
<stop stop-color="#8247E5"/>
<stop offset="1" stop-color="#8247E5" stop-opacity="0"/>
</radialGradient>
<radialGradient id="paint11_angular" cx="0" cy="0" r="1" gradientUnits="userSpaceOnUse" gradientTransform="translate(1069.33 958.234) rotate(-90) scale(37.8637)">
<stop stop-color="#8247E5"/>
<stop offset="1" stop-color="#8247E5" stop-opacity="0"/>
</radialGradient>
<radialGradient id="paint12_angular" cx="0" cy="0" r="1" gradientUnits="userSpaceOnUse" gradientTransform="translate(77.4409 1107.44) rotate(-90) scale(194.601)">
<stop stop-color="#8247E5"/>
<stop offset="1" stop-color="#8247E5" stop-opacity="0"/>
</radialGradient>
<radialGradient id="paint13_angular" cx="0" cy="0" r="1" gradientUnits="userSpaceOnUse" gradientTransform="translate(77.4181 1107.42) rotate(-90) scale(270.956)">
<stop stop-color="#8247E5"/>
<stop offset="1" stop-color="#8247E5" stop-opacity="0"/>
</radialGradient>
<radialGradient id="paint14_angular" cx="0" cy="0" r="1" gradientUnits="userSpaceOnUse" gradientTransform="translate(77.4625 1107.46) rotate(-90) scale(121.999)">
<stop stop-color="#8247E5"/>
<stop offset="1" stop-color="#8247E5" stop-opacity="0"/>
</radialGradient>
<radialGradient id="paint15_angular" cx="0" cy="0" r="1" gradientUnits="userSpaceOnUse" gradientTransform="translate(1164.98 376.86) rotate(30) scale(308.68)">
<stop stop-color="#8247E5"/>
<stop offset="1" stop-color="#8247E5" stop-opacity="0"/>
</radialGradient>
<radialGradient id="paint16_angular" cx="0" cy="0" r="1" gradientUnits="userSpaceOnUse" gradientTransform="translate(1164.99 376.91) rotate(30) scale(429.796)">
<stop stop-color="#8247E5"/>
<stop offset="1" stop-color="#8247E5" stop-opacity="0"/>
</radialGradient>
<radialGradient id="paint17_angular" cx="0" cy="0" r="1" gradientUnits="userSpaceOnUse" gradientTransform="translate(1164.96 376.813) rotate(30) scale(193.517)">
<stop stop-color="#8247E5"/>
<stop offset="1" stop-color="#8247E5" stop-opacity="0"/>
</radialGradient>
<radialGradient id="paint18_angular" cx="0" cy="0" r="1" gradientUnits="userSpaceOnUse" gradientTransform="translate(1164.95 376.768) rotate(30) scale(85.2144)">
<stop stop-color="#8247E5"/>
<stop offset="1" stop-color="#8247E5" stop-opacity="0"/>
</radialGradient>
<radialGradient id="paint19_angular" cx="0" cy="0" r="1" gradientUnits="userSpaceOnUse" gradientTransform="translate(1300.97 671.71) rotate(-150) scale(60.06)">
<stop stop-color="#8247E5"/>
<stop offset="1" stop-color="#8247E5" stop-opacity="0"/>
</radialGradient>
<radialGradient id="paint20_angular" cx="0" cy="0" r="1" gradientUnits="userSpaceOnUse" gradientTransform="translate(1269.11 1644.06) rotate(150) scale(469.255 469.255)">
<stop stop-color="#8247E5"/>
<stop offset="1" stop-color="#8247E5" stop-opacity="0"/>
</radialGradient>
<radialGradient id="paint21_angular" cx="0" cy="0" r="1" gradientUnits="userSpaceOnUse" gradientTransform="translate(1269.09 1644.13) rotate(150) scale(653.375)">
<stop stop-color="#8247E5"/>
<stop offset="1" stop-color="#8247E5" stop-opacity="0"/>
</radialGradient>
<radialGradient id="paint22_angular" cx="0" cy="0" r="1" gradientUnits="userSpaceOnUse" gradientTransform="translate(1269.13 1643.99) rotate(150) scale(294.184)">
<stop stop-color="#8247E5"/>
<stop offset="1" stop-color="#8247E5" stop-opacity="0"/>
</radialGradient>
<radialGradient id="paint23_angular" cx="0" cy="0" r="1" gradientUnits="userSpaceOnUse" gradientTransform="translate(1269.14 1643.92) rotate(150) scale(129.543)">
<stop stop-color="#8247E5"/>
<stop offset="1" stop-color="#8247E5" stop-opacity="0"/>
</radialGradient>
<radialGradient id="paint24_angular" cx="0" cy="0" r="1" gradientUnits="userSpaceOnUse" gradientTransform="translate(962.148 1497.15) rotate(90) scale(231.143)">
<stop stop-color="#8247E5"/>
<stop offset="1" stop-color="#8247E5" stop-opacity="0"/>
</radialGradient>
<radialGradient id="paint25_angular" cx="0" cy="0" r="1" gradientUnits="userSpaceOnUse" gradientTransform="translate(962.175 1497.18) rotate(90) scale(321.835)">
<stop stop-color="#8247E5"/>
<stop offset="1" stop-color="#8247E5" stop-opacity="0"/>
</radialGradient>
<radialGradient id="paint26_angular" cx="0" cy="0" r="1" gradientUnits="userSpaceOnUse" gradientTransform="translate(962.122 1497.12) rotate(90) scale(144.907)">
<stop stop-color="#8247E5"/>
<stop offset="1" stop-color="#8247E5" stop-opacity="0"/>
</radialGradient>
<radialGradient id="paint27_angular" cx="0" cy="0" r="1" gradientUnits="userSpaceOnUse" gradientTransform="translate(962.098 1497.1) rotate(90) scale(63.8093)">
<stop stop-color="#8247E5"/>
<stop offset="1" stop-color="#8247E5" stop-opacity="0"/>
</radialGradient>
<radialGradient id="paint28_angular" cx="0" cy="0" r="1" gradientUnits="userSpaceOnUse" gradientTransform="translate(1439.47 1198.47) rotate(90) scale(130.294)">
<stop stop-color="#8247E5"/>
<stop offset="1" stop-color="#8247E5" stop-opacity="0"/>
</radialGradient>
<radialGradient id="paint29_angular" cx="0" cy="0" r="1" gradientUnits="userSpaceOnUse" gradientTransform="translate(140.555 1387.51) rotate(-90) scale(72.6719)">
<stop stop-color="#8247E5"/>
<stop offset="1" stop-color="#8247E5" stop-opacity="0"/>
</radialGradient>
<radialGradient id="paint30_angular" cx="0" cy="0" r="1" gradientUnits="userSpaceOnUse" gradientTransform="translate(1332 192) rotate(90) scale(64)">
<stop stop-color="#8247E5"/>
<stop offset="1" stop-color="#8247E5" stop-opacity="0"/>
</radialGradient>
</defs>
</svg>
